<svg xmlns="http://www.w3.org/2000/svg" viewBox="0 0 474 438"><path fill="#8C4FEF" d="M77 142c4.29 1.31 8.022 2.965 11.93 5.16l3.383 1.891 3.562 2.012 3.687 2.065q3.615 2.028 7.228 4.063 3.864 2.178 7.733 4.344a2702 2702 0 0 1 16.641 9.406 1497 1497 0 0 0 34.138 18.825c8.106 4.348 16.126 8.831 24.115 13.39 8.183 4.656 16.459 9.13 24.78 13.532l2.873 1.535 2.524 1.336L222 221l2.764 1.397c3.758 4.374 2.962 9.454 2.943 15.025l.046 3.682c.043 3.882.052 7.764.06 11.646q.034 3.947.076 7.895c.063 6.451.097 12.903.111 19.355l2.333.933L243 286v-2l14.333-8.028a6883 6883 0 0 1 17.366-9.702c18.115-8.74 18.115-8.74 34.301-20.27.04-2 .043-4 0-6a449 449 0 0 0-27.187 14.25l-2.928 1.66q-7.455 4.243-14.85 8.594l-2.884 1.684a587 587 0 0 0-5.413 3.206l-2.465 1.438-2.143 1.273c-2.508 1.054-4.435 1.059-7.13.895-1.885-7.44-1.303-15.425-1.35-23.047a541 541 0 0 0-.082-5.906 608 608 0 0 1-.091-8.547l-.07-2.658c.016-4.283.13-6.23 2.781-9.73 2.71-2.036 5.35-3.774 8.328-5.39l3.253-1.783c1.148-.62 2.297-1.239 3.481-1.876l3.63-1.986q3.731-2.044 7.468-4.08c5.491-2.997 10.947-6.06 16.402-9.122l3.112-1.744a6445 6445 0 0 0 23.475-13.237c8.09-4.577 16.2-9.118 24.312-13.655q9.201-5.147 18.375-10.34 4.275-2.418 8.554-4.829c3.587-2.024 7.157-4.072 10.719-6.14l4.89-2.805c.737-.435 1.474-.87 2.233-1.32 5.085-2.894 5.085-2.894 7.8-2.407L393 143q.111 6.113.165 12.225.022 2.08.061 4.159c.037 1.993.052 3.986.067 5.98l.048 3.633C393 172 393 172 391.773 173.736a81 81 0 0 1-6.437 4.127l-2.863 1.667-3.098 1.782-3.22 1.865c-13.42 7.747-26.95 15.3-40.518 22.784l-2.487 1.374q-2.245 1.24-4.495 2.47c-8.77 4.167-8.77 4.167-14.28 11.32L314 223c7.264-2.45 13.785-5.953 20.5-9.625l3.482-1.884c5.043-2.736 10.068-5.496 15.03-8.378l2.18-1.26a254 254 0 0 0 3.824-2.275c6.165-3.608 12.352-3.702 19.356-3.723l2.122-.01q3.435-.013 6.87-.013l4.798-.01q5.009-.009 10.018-.007c4.285 0 8.57-.014 12.856-.031q4.944-.015 9.89-.013 2.371 0 4.742-.013c2.203-.01 4.404-.007 6.607 0l3.798-.005C443 196 443 196 445 198c-.25 2.063-.25 2.063-1 4-2.798 1.4-5.104 1.125-8.235 1.126l-3.976.012h-2.133c-2.966.004-5.932.025-8.898.045-5.521.038-11.042.07-16.563.067q-5.762.002-11.523.062-2.187.015-4.373.005c-8.293-.04-15.658.096-22.299 5.683-2.152 3.228-2.2 4.284-2 8 4.13-.567 4.13-.567 8-2 2.844-.087 5.664-.116 8.508-.098l2.547.005c2.69.005 5.38.018 8.07.03q2.732.008 5.465.014 6.705.017 13.41.049l1 4c-4.902 2.441-9.463 2.106-14.766 1.834-10.327-.288-18.433 4.649-27.171 9.666l-3.15 1.762c-5.684 3.048-5.684 3.048-9.913 7.738-.167 3.125-.167 3.125 0 6 5.62-2.155 11.062-4.437 16.336-7.336l2.246-1.235a276 276 0 0 0 4.365-2.481c4.639-2.585 7.74-3.413 13.053-2.948.75 2.25.75 2.25 1 5-2.728 3.276-5.771 5.191-9.488 7.215l-3.296 1.81-3.529 1.912a4510 4510 0 0 0-5.492 3.015l-3.731 2.046c-5.914 3.24-11.787 6.549-17.651 9.877-10.6 6.013-10.6 6.013-15.727 8.863l-2.269 1.264q-2.06 1.147-4.124 2.285c-2.528 1.408-4.636 2.656-6.693 4.713-.167 3.583-.167 3.583 0 7 4.332-.342 7.233-1.629 10.938-3.75 2.613-1.375 2.613-1.375 5.062-2.25 3.625 1.25 3.625 1.25 7 3 7.877.054 13.544-3.718 20.188-7.625l6.68-3.832 3.21-1.858a486 486 0 0 1 10.735-5.998l2.832-1.55c6.236-3.01 12.965-2.323 19.737-2.322 2.177-.002 4.353-.02 6.53-.04q2.078-.005 4.154-.005l3.811-.013C425 261 425 261 428 263c-.375 2.438-.375 2.438-1 5-2.74 1.37-4.748.957-7.809.79-19.37-.586-31.481 3.4-47.984 14.144-5.068 3.266-10.297 6.243-15.52 9.253l-5.91 3.473c-5.614 3.272-11.308 6.382-17.027 9.465a2957 2957 0 0 0-8.04 4.39 1545 1545 0 0 1-5.577 3.04 582 582 0 0 0-8.383 4.695c-.852.46-1.705.918-2.583 1.391-4.374 2.47-4.374 2.47-7.15 6.498-.667 2.434-.667 2.434-1.017 5.861 14.01-6.707 27.535-14.294 41.104-21.836q5.84-3.245 11.689-6.476l1.922-1.063q4.665-2.579 9.336-5.146l1.786-.981 1.745-.959a797 797 0 0 0 11.43-6.39l2.133-1.198c1.74-.976 3.472-1.967 5.203-2.959C389 283 389 283 391.37 283.82L393 285c-.265 3.183-.603 4.63-2.977 6.84-3.914 2.797-8.015 5.124-12.21 7.473q-2.845 1.608-5.688 3.218l-3.027 1.711c-6.37 3.615-12.706 7.286-19.043 10.958-5.148 2.98-10.302 5.948-15.491 8.856a1770 1770 0 0 0-5.401 3.044 891 891 0 0 1-6.8 3.802c-6.174 3.39-6.174 3.39-11.148 8.254-2.71 3.48-5.54 5.162-9.34 7.281l-3.988 2.317-1.983 1.141a295 295 0 0 0-8.216 4.98l-2.614 1.617c-2.323 1.506-2.323 1.506-4.074 4.508 6.53-2.584 12.522-5.98 18.625-9.437l3.343-1.883a3393 3393 0 0 0 20.844-11.868 2123 2123 0 0 1 21.313-12.062l2.57-1.45 2.375-1.316 2.087-1.165C354 321 354 321 357 321c.116 3.416.187 6.832.25 10.25l.102 2.934.039 2.832.063 2.602c-.623 3.268-1.896 4.292-4.454 6.382a124 124 0 0 1-5.89 3.617l-1.736 1.01a1394 1394 0 0 1-5.624 3.248l-3.938 2.286q-3.997 2.322-7.999 4.633c-4.41 2.55-8.81 5.118-13.208 7.689q-4.392 2.565-8.789 5.126a13431 13431 0 0 0-14.708 8.587q-4.45 2.597-8.905 5.187a1908 1908 0 0 0-11.48 6.734q-3.556 2.097-7.121 4.181a1012 1012 0 0 0-5.05 2.993l-3.122 1.822-2.743 1.619c-2.916 1.376-5.498 1.885-8.687 2.268l.043-1.813c.135-6.247.186-12.49.189-18.738q.018-3.494.1-6.986c.91-12.083.91-12.083-2.538-23.225C238.277 353.009 233.797 351 229 351l.007 1.896q.032 9.782.048 19.564.008 3.649.02 7.298c.013 3.5.018 7 .023 10.5l.015 3.286c0 4.931-.057 9.612-1.113 14.456-4.503-.585-7.952-2.434-11.812-4.687l-2.057-1.178A1295 1295 0 0 1 207 398l-2.833-1.65a8316 8316 0 0 1-12.303-7.186c-6.37-3.725-12.77-7.387-19.215-10.981-4.61-2.579-9.167-5.24-13.711-7.933-6.554-3.884-13.17-7.647-19.813-11.375-9.35-5.25-18.592-10.669-27.8-16.162-7.458-4.448-14.934-8.842-22.57-12.976-3.604-1.976-6.882-3.786-9.755-6.737-.446-2.957-.587-5.323-.488-8.266l.021-2.404c.028-2.528.09-5.053.154-7.58q.038-2.574.069-5.148c.055-4.202.141-8.402.244-12.602 3.7 1.156 7.023 2.41 10.371 4.363l2.453 1.418 2.614 1.531q2.825 1.636 5.652 3.27l2.949 1.71c4.801 2.77 9.631 5.488 14.461 8.208a4547 4547 0 0 1 22.125 12.563l2.569 1.466q6.802 3.885 13.576 7.819l2.874 1.662a1226 1226 0 0 1 5.43 3.158c4.229 2.44 8.184 4.521 12.926 5.832.108-1.915.186-3.833.25-5.75l.14-3.234c-.484-3.743-1.467-4.714-4.39-7.016-2.023-1.313-4.09-2.48-6.195-3.656-2.268-1.689-2.928-2.64-3.805-5.344a111 111 0 0 1-.125-8.25l.027-2.258c.024-1.83.06-3.661.098-5.492 6.06 1.815 11.41 4.08 16.875 7.25q2.357 1.339 4.715 2.676l2.593 1.479c4.236 2.398 8.5 4.746 12.76 7.1 10.053 5.558 20.074 11.161 29.97 16.995 4.61 2.703 9.285 5.156 14.087 7.5l-.352-3.945c-.855-13.303-.855-13.303 1.875-17.266 2.734-1.583 5.533-2.633 8.477-3.789 3.564-1.861 7.057-3.844 10.563-5.812q3.82-2.084 7.646-4.16c1.752-.902 1.752-.902 2.791-2.028.072-1.52.084-3.042.063-4.562l-.028-2.504L275 296c-6.23 1.722-11.23 5.03-16.635 8.455-4.558 2.79-8.013 4.2-13.365 4.545l-.187-2.375L244 304c-2.262-1.073-2.262-1.073-5-2-3.68-1.639-7.337-3.323-11-5v22c-11.257-4.503-11.257-4.503-16.68-7.426l-1.754-.941q-1.814-.976-3.624-1.959-2.708-1.469-5.422-2.922c-6.722-3.618-13.345-7.382-19.925-11.254-3.063-1.768-6.156-3.343-9.345-4.873a275 275 0 0 1-14.937-7.937c-6.57-3.746-13.223-7.3-19.929-10.796-7.054-3.69-14.025-7.52-20.975-11.401L113 258.152l-2.125-1.187c-3.745-1.927-6.922-2.145-11.074-2.281l-3.662-.127-3.826-.12-3.862-.13q-4.725-.16-9.451-.307l-2-6-1.838-.031q-9.515-.164-19.03-.341a5566 5566 0 0 0-7.09-.125q-5.114-.088-10.226-.187l-3.173-.05A408 408 0 0 1 27 247l-2.665-.102c-2.449-.168-2.449-.168-6.335-.898-1.243-2.046-1.243-2.046-2-4 3.114-3.114 6.929-2.372 11.118-2.433l2.869-.065c9.998-.206 19.998-.29 29.997-.367a955 955 0 0 0 14.163-.226c49.194-1.117 49.194-1.117 66.522 12.369 4.293 3.172 9.031 5.602 13.706 8.16q2.814 1.593 5.621 3.195c10.57 5.965 21.296 11.653 32.004 17.367 1.479-2.875 2.128-4.4 1.444-7.61-1.808-2.992-3.476-3.973-6.546-5.624l-3.15-1.726-3.373-1.79-6.883-3.75-3.388-1.824a694 694 0 0 1-11.604-6.426l-1.85-1.042a1452 1452 0 0 1-15.088-8.645l-2.246-1.29c-5.2-3.042-5.2-3.042-6.316-5.273l.246-2.941c.218-4.122.042-7.123-1.246-11.059-4.133-3.556-8.655-5.653-13.598-7.886-4.214-1.954-8.267-4.195-12.34-6.427l-2.384-1.239-2.205-1.186-1.961-1.033c-1.934-1.572-2.144-2.812-2.512-5.229 5.665.491 9.578 2.75 14.375 5.563 5.721 3.27 11.451 6.425 17.375 9.312C139.018 217.9 148.994 223.477 159 229q.074-2.166.117-4.332l.066-2.437c-.014-2.47-.014-2.47-2.058-4.918-8.178-6.052-17.383-10.832-26.16-15.974l-5.969-3.501-3.808-2.233c-.89-.521-.89-.521-1.796-1.054-2.11-1.234-4.205-2.458-6.392-3.551v-2l-1.937-.375c-1.669-.34-3.336-.696-4.984-1.124-5.757-1.445-11.041-1.688-16.954-1.501q-2.496.077-4.992.125l-2.191.07C80 186 80 186 77 184l1-4c2.997-.87 5.65-1.118 8.766-1.098l2.695.01 2.789.025 2.836.014q3.458.018 6.914.049l-1-8c-2.632-.877-4.37-1.172-7.085-1.297l-2.485-.118-2.692-.112-2.814-.126c-10.575-.45-21.155-.688-31.737-.91l-5.927-.13Q41.13 168.15 34 168l-1-4c3.778-2.484 7.554-2.24 11.906-2.16l2.308.016c2.43.017 4.857.049 7.286.082q3.642.042 7.286.07 2.264.019 4.527.054c3.38.032 6.458.007 9.687-1.062l-.035-3.395-.028-4.417-.025-2.237c-.015-3.25.053-5.845 1.088-8.951"/><path fill="#8F5AF6" d="m246.973 46.055 3.448 1.847 3.642 1.973 3.739 2.014C268.64 57.74 279.355 63.803 290 70v4l-20 11c3.464 2.77 5.915 4.644 9.71 6.559l2.74 1.4 2.925 1.478a635 635 0 0 1 27.558 15.022 339 339 0 0 0 5.382 3.023C321 114 321 114 323.525 115.694c10.114 6.185 21.275 5.06 32.725 4.931a886 886 0 0 1 9.355-.03q2.892.007 5.783-.047c6.22.003 10.3 1.29 15.612 4.452 3.8 2.08 6.816 2.383 11.172 2.633l2.068.126c2.17.13 4.34.248 6.51.366l4.426.262q5.41.319 10.824.613l1 3c-5.008.82-9.859 1.154-14.937 1.125l-1.956.012c-4.711-.01-9.373-.292-14.072-.633-10.415-.714-20.84-.69-31.275-.69-3.413-.002-6.827-.02-10.24-.039l-6.56-.005-3.067-.022c-5.134.016-9.027.513-13.893 2.252-2.776.227-5.465.37-8.242.414l-2.329.059c-2.434.06-4.869.106-7.304.152l-4.977.117q-6.073.143-12.148.258v5c6.153 2.182 11.739 2.23 18.227 2.125l3.23-.023c3.39-.024 6.778-.062 10.168-.102q6.707-.078 13.414-.125l3.103-.05 2.903-.02 2.54-.032c2.763.26 4.897 1.091 7.415 2.227-.875 3.875-.875 3.875-2 5-2.437.114-4.848.165-7.286.174l-2.311.02q-2.493.021-4.986.036-3.946.026-7.894.065-11.223.104-22.448.182-6.86.049-13.717.12-2.614.024-5.23.037c-2.441.012-4.883.036-7.324.063l-2.18.002c-3.94.057-7.156.348-10.624 2.301l-1 3c.788 2.155.788 2.155 2.762 2.619 2.398.408 4.615.494 7.047.479l2.884-.01 3.1-.025 3.214-.012c4.533-.016 9.066-.044 13.599-.072q4.969-.025 9.937-.042l3.07-.025c5.883-.02 11.552.323 17.387 1.088-1.242 3.725-2.141 3.904-5.54 5.68-.96.51-1.92 1.02-2.91 1.544l-3.175 1.651q-3.32 1.761-6.637 3.527l-3.42 1.816c-4.961 2.664-9.861 5.433-14.755 8.22l-8.579 4.872a3565 3565 0 0 1-19.096 10.712 1162 1162 0 0 0-13.845 7.826l-2.229 1.278q-1.984 1.14-3.958 2.299c-6.075 3.482-6.075 3.482-9.856 3.575a61 61 0 0 1-7.25-3.312l-2.129-1.103c-5.684-2.985-11.208-6.227-16.713-9.526-6.087-3.63-12.29-7.018-18.533-10.371a1285 1285 0 0 1-26.518-14.672A2435 2435 0 0 0 141.5 160.5c-8.461-4.689-16.9-9.412-25.312-14.187-10.99-6.238-22.074-12.3-33.188-18.313.728-3.792.728-3.792 3.18-5.668l2.695-1.52 2.68-1.542c3.53-1.833 6.223-2.397 10.145-2.421l2.927-.026 3.207-.012 3.38-.026q3.64-.025 7.278-.045 5.755-.032 11.51-.077 12.218-.088 24.435-.163c9.433-.06 18.866-.121 28.3-.192q5.676-.038 11.353-.068l6.947-.05 3.2-.013 2.936-.026 2.547-.015c2.216-.132 4.152-.521 6.28-1.136l-1-5-3.631-.025q-16.908-.116-33.816-.263-8.692-.076-17.386-.134a5749 5749 0 0 1-16.768-.136q-3.204-.028-6.409-.045c-2.983-.017-5.967-.046-8.95-.078l-2.699-.007c-6.113-.084-6.113-.084-8.341-2.312 6.654-4.675 13.62-8.667 20.756-12.546 3.23-1.757 6.454-3.526 9.678-5.294l1.96-1.074c5.797-3.18 11.55-6.437 17.293-9.711 9.118-5.187 18.332-10.178 27.583-15.123 8.464-4.537 16.839-9.217 25.171-13.99a643 643 0 0 1 5.185-2.93q2.311-1.295 4.584-2.655l2.063-1.17c.58-.34 1.159-.682 1.756-1.034 4.811-1.155 9.825 2.369 13.944 4.582m-99.895 78.301c-1.342 1.684-1.342 1.684-.89 4.269.558 2.54.558 2.54 2.812 3.375 4.62.272 9.248.232 13.875.25 1.94.03 1.94.03 3.918.063l3.762.015 3.452.028c3.263-.388 4.614-1.152 6.993-3.356-.344-2.473-.344-2.473-1-5-4.222-2.111-9.732-1.227-14.376-1.24-2.05-.01-4.1-.041-6.15-.073l-3.908-.015-3.595-.028c-2.953.115-2.953.115-4.893 1.712"/><path fill="#4629B2" d="M77 142c4.29 1.31 8.022 2.965 11.93 5.16l3.383 1.891 3.562 2.012 3.687 2.065q3.615 2.028 7.228 4.063 3.864 2.178 7.733 4.344a2702 2702 0 0 1 16.641 9.406 1497 1497 0 0 0 34.138 18.825c8.106 4.348 16.126 8.831 24.115 13.39 8.183 4.656 16.459 9.13 24.78 13.532l2.873 1.535 2.524 1.336L222 221l2.764 1.397c3.758 4.374 2.962 9.454 2.943 15.025l.046 3.682c.043 3.882.052 7.764.06 11.646q.034 3.947.076 7.895c.063 6.451.097 12.903.111 19.355l2.333.933L243 286v18l-15-7v22c-11.257-4.503-11.257-4.503-16.68-7.426l-1.754-.941q-1.814-.976-3.624-1.959-2.708-1.469-5.422-2.922c-6.722-3.618-13.345-7.382-19.925-11.254-3.063-1.768-6.156-3.343-9.345-4.873a275 275 0 0 1-14.937-7.937c-6.57-3.746-13.223-7.3-19.929-10.796-7.054-3.69-14.025-7.52-20.975-11.401L113 258.152l-2.125-1.187c-3.745-1.927-6.922-2.145-11.074-2.281l-3.662-.127-3.826-.12-3.862-.13q-4.725-.16-9.451-.307l-2-6-1.838-.031q-9.515-.164-19.03-.341a5566 5566 0 0 0-7.09-.125q-5.114-.088-10.226-.187l-3.173-.05A408 408 0 0 1 27 247l-2.665-.102c-2.449-.168-2.449-.168-6.335-.898-1.243-2.046-1.243-2.046-2-4 3.114-3.114 6.929-2.372 11.118-2.433l2.869-.065c9.998-.206 19.998-.29 29.997-.367a955 955 0 0 0 14.163-.226c49.194-1.117 49.194-1.117 66.522 12.369 4.293 3.172 9.031 5.602 13.706 8.16q2.814 1.593 5.621 3.195c10.57 5.965 21.296 11.653 32.004 17.367 1.479-2.875 2.128-4.4 1.444-7.61-1.808-2.992-3.476-3.973-6.546-5.624l-3.15-1.726-3.373-1.79-6.883-3.75-3.388-1.824a694 694 0 0 1-11.604-6.426l-1.85-1.042a1452 1452 0 0 1-15.088-8.645l-2.246-1.29c-5.2-3.042-5.2-3.042-6.316-5.273l.246-2.941c.218-4.122.042-7.123-1.246-11.059-4.133-3.556-8.655-5.653-13.598-7.886-4.214-1.954-8.267-4.195-12.34-6.427l-2.384-1.239-2.205-1.186-1.961-1.033c-1.934-1.572-2.144-2.812-2.512-5.229 5.665.491 9.578 2.75 14.375 5.563 5.721 3.27 11.451 6.425 17.375 9.312C139.018 217.9 148.994 223.477 159 229q.074-2.166.117-4.332l.066-2.437c-.014-2.47-.014-2.47-2.058-4.918-8.178-6.052-17.383-10.832-26.16-15.974l-5.969-3.501-3.808-2.233c-.89-.521-.89-.521-1.796-1.054-2.11-1.234-4.205-2.458-6.392-3.551v-2l-1.937-.375c-1.669-.34-3.336-.696-4.984-1.124-5.757-1.445-11.041-1.688-16.954-1.501q-2.496.077-4.992.125l-2.191.07C80 186 80 186 77 184l1-4c2.997-.87 5.65-1.118 8.766-1.098l2.695.01 2.789.025 2.836.014q3.458.018 6.914.049l-1-8c-2.632-.877-4.37-1.172-7.085-1.297l-2.485-.118-2.692-.112-2.814-.126c-10.575-.45-21.155-.688-31.737-.91l-5.927-.13Q41.13 168.15 34 168l-1-4c3.778-2.484 7.554-2.24 11.906-2.16l2.308.016c2.43.017 4.857.049 7.286.082q3.642.042 7.286.07 2.264.019 4.527.054c3.38.032 6.458.007 9.687-1.062l-.035-3.395-.028-4.417-.025-2.237c-.015-3.25.053-5.845 1.088-8.951m2 145c3.7 1.156 7.023 2.41 10.371 4.363l2.453 1.418 2.614 1.531q2.825 1.636 5.652 3.27l2.949 1.71c4.801 2.77 9.631 5.488 14.461 8.208a4547 4547 0 0 1 22.125 12.563l2.569 1.466q6.802 3.885 13.576 7.819l2.874 1.662a1226 1226 0 0 1 5.43 3.158c4.229 2.44 8.184 4.521 12.926 5.832.108-1.915.186-3.833.25-5.75l.14-3.234c-.484-3.743-1.467-4.714-4.39-7.016-2.023-1.313-4.09-2.48-6.195-3.656-2.268-1.689-2.928-2.64-3.805-5.344a111 111 0 0 1-.125-8.25l.027-2.258c.024-1.83.06-3.661.098-5.492 6.06 1.815 11.41 4.08 16.875 7.25q2.357 1.339 4.715 2.676l2.593 1.479c4.236 2.399 8.5 4.747 12.76 7.1 10.111 5.59 20.185 11.23 30.147 17.083A194 194 0 0 0 242 341c1 1 1 1 1.098 4.379q-.01 2.091-.036 4.183l-.013 2.155q-.02 2.64-.049 5.283c-3.063-1.17-5.885-2.425-8.687-4.125-2.969-2.04-2.969-2.04-5.313-1.875l.007 1.896q.032 9.782.048 19.564.008 3.649.02 7.298c.013 3.5.018 7 .023 10.5l.015 3.286c0 4.931-.057 9.612-1.113 14.456-4.503-.585-7.952-2.434-11.812-4.687l-2.057-1.178A1295 1295 0 0 1 207 398l-2.833-1.65a8316 8316 0 0 1-12.303-7.186c-6.37-3.725-12.77-7.387-19.215-10.981-4.61-2.579-9.167-5.24-13.711-7.933-6.554-3.884-13.17-7.647-19.813-11.375-9.35-5.25-18.592-10.669-27.8-16.162-7.458-4.448-14.934-8.842-22.57-12.976-3.604-1.976-6.882-3.786-9.755-6.737-.446-2.957-.587-5.323-.488-8.266l.021-2.404c.028-2.528.09-5.053.154-7.58q.038-2.574.069-5.148c.055-4.202.141-8.402.244-12.602"/><path fill="#4629B2" d="m62.61 261.797 2.2-.017q2.3-.014 4.6-.02c2.319-.01 4.638-.041 6.957-.072 7.638-.06 14.634-.08 21.633 3.312l3.142 1.51a414 414 0 0 1 8.853 4.533c1.828.962 3.66 1.913 5.495 2.863 9.743 5.09 9.743 5.09 13.51 8.094l-1 4c-4.295-.536-7.432-1.516-11.187-3.652l-2.868-1.604-2.945-1.682q-2.902-1.646-5.812-3.277l-2.583-1.472c-6.192-3.12-11.463-3.616-18.273-3.657l-2.778-.044c-3.904-.062-7.808-.102-11.713-.144-2.857-.033-5.714-.079-8.571-.124l-2.68-.016-2.49-.04-2.185-.023C52 270 52 270 49 268l1-5c4.208-1.013 8.303-1.177 12.61-1.203m-6.797-49.035 2.677-.025q2.814-.02 5.629-.032c2.842-.017 5.683-.061 8.526-.105 17.725-.15 17.725-.15 25.355 4.4l-1 4q-10.599.075-21.198.11-3.606.016-7.213.04c-3.453.025-6.906.036-10.359.045l-3.267.032H51.93l-2.671.014C47 221 47 221 44 219c.375-2.437.375-2.437 1-5 3.35-1.675 7.126-1.206 10.813-1.238"/><path fill="#8F5AF6" d="m368.773 95.672 2.306.006q2.414.01 4.826.04c2.454.032 4.907.042 7.36.048l4.696.03 2.213.014c3.726.052 7.202.306 10.826 1.19v3c-3.19 1.595-6.645 1.163-10.148 1.168l-2.452.01q-2.57.007-5.14.007c-2.618.002-5.235.02-7.854.04q-2.496.005-4.992.005l-2.37.022c-3.826-.016-6.804-.086-10.044-2.252 2.713-3.958 6.424-3.401 10.773-3.328M315 91c6.854.4 12.1 3.246 18.125 6.375l2.957 1.5c4.399 2.244 8.702 4.55 12.918 7.125l-1 3c-6.692-.475-12.09-3.004-18.125-5.812l-2.957-1.33C322.152 99.668 317.9 97.59 314 94z"/><path fill="#8C4FEF" d="m396.875 303.813 2.473-.038 2.394-.005 2.183-.013c2.38.279 4.005 1.066 6.075 2.243l-2 4c-3.27.029-6.542.047-9.812.063l-2.815.025-2.705.01-2.491.016C388 310 388 310 385 309c.375-1.937.375-1.937 1-4 3.376-1.688 7.166-1.185 10.875-1.187"/></svg>